<svg xmlns="http://www.w3.org/2000/svg" width="16" height="16" fill="#4f46e5" class="bi bi-easel-fill" viewBox="0 0 16 16">
  <path d="M8.473.337a.5.5 0 0 0-.946 0L6.953 2.5H2.5A1.5 1.5 0 0 0 1 4v5.5a1.5 1.5 0 0 0 1.5 1.5h11A1.5 1.5 0 0 0 15 9.5V4a1.5 1.5 0 0 0-1.5-1.5H9.047L8.473.337zM6.154 3.5v5.085l-1.626-1.626a.5.5 0 0 0-.707.707L5.445 9.3l-1.626 1.626a.5.5 0 0 0 .707.707L6.154 10.01V15H5a.5.5 0 0 0 0 1h6a.5.5 0 0 0 0-1h-1.154V10.01l1.626 1.626a.5.5 0 0 0 .707-.707L10.555 9.3l1.626-1.626a.5.5 0 0 0-.707-.707L9.846 8.585V3.5H6.154z"/>
</svg>
